<?xml version="1.0" standalone="no"?>
<!DOCTYPE svg PUBLIC "-//W3C//DTD SVG 20010904//EN"
 "http://www.w3.org/TR/2001/REC-SVG-20010904/DTD/svg10.dtd">
<svg version="1.0" xmlns="http://www.w3.org/2000/svg"
 width="210.000000pt" height="210.000000pt" viewBox="0 0 210.000000 210.000000"
 preserveAspectRatio="xMidYMid meet">

<g transform="translate(0.000000,210.000000) scale(0.100000,-0.100000)"
fill="#000000" stroke="none">
<path d="M935 1484 c-16 -25 -16 -26 6 -22 14 2 23 11 25 26 5 30 -10 28 -31
-4z"/>
<path d="M1110 1490 c0 -13 11 -13 30 0 12 8 11 10 -7 10 -13 0 -23 -4 -23
-10z"/>
<path d="M1025 1480 c-3 -6 1 -13 10 -16 19 -8 30 0 20 15 -8 14 -22 14 -30 1z"/>
<path d="M870 1461 c0 -10 -6 -22 -12 -24 -7 -3 -1 -6 14 -6 21 -1 25 3 21 19
-7 28 -23 36 -23 11z"/>
<path d="M1145 1460 c3 -5 17 -10 31 -10 13 0 24 5 24 10 0 6 -14 10 -31 10
-17 0 -28 -4 -24 -10z"/>
<path d="M1247 1429 c6 -21 29 -36 40 -25 7 6 -25 46 -38 46 -4 0 -5 -9 -2
-21z"/>
<path d="M814 1414 c3 -9 6 -18 6 -21 0 -3 7 0 15 7 17 14 11 30 -12 30 -10 0
-13 -6 -9 -16z"/>
<path d="M757 1400 c-19 -28 -21 -40 -7 -40 12 0 32 38 28 52 -3 7 -12 1 -21
-12z"/>
<path d="M1322 1400 c-10 -25 -3 -34 21 -28 10 2 11 8 0 28 l-12 24 -9 -24z"/>
<path d="M1381 1356 c-15 -18 -10 -29 12 -24 9 2 12 9 8 21 -6 17 -8 18 -20 3z"/>
<path d="M1164 1346 c-28 -13 -64 -72 -64 -108 0 -15 -105 -153 -167 -218 -28
-30 -62 -68 -74 -85 -12 -16 -36 -45 -53 -64 -27 -29 -28 -33 -10 -29 21 5 21
5 -3 -40 -13 -24 -21 -47 -18 -50 3 -3 22 10 43 30 52 50 160 111 194 111 16
0 41 -9 56 -21 15 -12 44 -31 65 -42 43 -24 45 -28 15 -39 -15 -5 -3 -8 40 -8
34 -1 60 3 57 7 -3 5 1 11 7 13 7 3 -2 6 -20 6 -18 1 -43 6 -55 13 -21 11 -21
11 -2 19 11 4 32 8 46 8 15 1 37 10 50 22 23 19 23 20 2 10 -26 -13 -36 -14
-30 -3 3 4 -17 7 -44 8 -27 1 -52 3 -54 6 -3 3 15 35 40 72 58 87 69 130 61
235 -6 71 -5 86 10 102 9 10 23 19 29 19 7 0 18 7 25 15 11 13 6 15 -38 15
-28 0 -56 2 -64 5 -7 2 -27 -2 -44 -9z m10 -472 c24 -9 19 -21 -10 -28 -25 -7
-54 7 -54 25 0 10 41 12 64 3z"/>
<path d="M678 1305 c5 -30 22 -28 33 3 7 19 5 22 -15 22 -19 0 -22 -4 -18 -25z"/>
<path d="M1412 1283 c-9 -16 -9 -24 -1 -29 16 -10 28 8 19 31 -7 19 -7 19 -18
-2z"/>
<path d="M615 1227 c-8 -31 -3 -40 18 -35 11 2 12 8 1 33 l-12 30 -7 -28z"/>
<path d="M1440 1205 c0 -36 35 -66 42 -37 3 9 -6 28 -19 42 l-23 25 0 -30z"/>
<path d="M590 1151 c0 -18 6 -31 16 -35 25 -10 27 -1 9 33 -19 39 -25 39 -25
2z"/>
<path d="M1467 1124 c-7 -7 4 -44 13 -44 14 0 18 39 5 44 -7 2 -15 2 -18 0z"/>
<path d="M578 1068 c-4 -22 15 -48 37 -48 12 0 4 29 -14 51 l-18 22 -5 -25z"/>
<path d="M1472 1038 c3 -7 13 -15 22 -16 12 -3 17 1 14 10 -3 7 -13 15 -22 16
-12 3 -17 -1 -14 -10z"/>
<path d="M600 965 c-15 -29 -7 -44 12 -24 16 17 22 49 10 49 -5 0 -15 -11 -22
-25z"/>
<path d="M1469 978 c-5 -17 -4 -48 2 -48 12 0 30 36 22 44 -6 6 -22 8 -24 4z"/>
<path d="M614 895 c25 -19 33 -19 33 0 0 10 -10 15 -26 15 -25 -1 -25 -1 -7
-15z"/>
<path d="M1417 873 c-15 -15 -6 -43 13 -43 11 0 20 3 20 8 -1 14 -27 42 -33
35z"/>
<path d="M650 830 c-9 -17 -8 -20 9 -20 14 0 18 5 14 20 -3 11 -7 20 -9 20 -2
0 -8 -9 -14 -20z"/>
<path d="M1367 788 c-15 -39 -15 -46 4 -51 10 -3 22 -1 25 4 3 5 1 9 -5 9 -5
0 -11 12 -13 28 -3 21 -6 23 -11 10z"/>
<path d="M694 755 c25 -19 33 -19 33 0 0 10 -10 15 -26 15 -25 -1 -25 -1 -7
-15z"/>
<path d="M757 700 c-4 -15 0 -20 15 -20 13 0 18 6 16 17 -5 24 -25 27 -31 3z"/>
<path d="M1297 690 c-4 -15 0 -20 14 -20 22 0 25 13 5 29 -11 9 -15 7 -19 -9z"/>
<path d="M1217 673 c-13 -12 -7 -23 13 -23 13 0 18 5 14 15 -7 16 -17 19 -27
8z"/>
<path d="M855 660 c-8 -13 -1 -24 14 -19 6 3 7 10 2 18 -6 10 -10 10 -16 1z"/>
<path d="M1161 634 c-14 -30 -11 -37 13 -28 16 6 23 54 8 54 -5 0 -14 -12 -21
-26z"/>
<path d="M909 641 c-11 -4 -14 -12 -10 -24 6 -17 8 -17 25 1 19 22 11 33 -15
23z"/>
<path d="M960 630 c10 -18 40 -29 40 -14 0 10 -28 34 -40 34 -8 0 -8 -6 0 -20z"/>
<path d="M1032 610 c-10 -25 -3 -34 21 -28 10 2 11 8 0 28 l-12 24 -9 -24z"/>
<path d="M1086 615 c-4 -10 1 -15 16 -15 17 0 18 2 8 15 -7 8 -14 15 -15 15
-2 0 -5 -7 -9 -15z"/>
</g>
</svg>
